
<svg width="560" height="630" viewBox="0 0 560 630" fill="none" xmlns="http://www.w3.org/2000/svg">
<path d="M514 187.101L279 47L43 187.101V454.813L278.5 596L514 456.985V187.101Z" fill="#122321"/>
<path d="M498.5 196L279 68L58.5 195.5V444.5L278.5 573.5L498.5 447.5V196Z" fill="#FDFDFC"/>
<path d="M119 353.432L94.5 339L131.5 404.34L179.5 433.5L119 353.432Z" fill="#52A844"/>
<path d="M268 472.5L240.5 425L189.5 394.959L119 353.432L179.5 433.5L131.5 404.34L141.5 422L138 428.5L157.5 457L268 523.5V498V472.5Z" fill="#52A844"/>
<path d="M439 353.432L463.5 339L426.5 404.34L378.5 433.5L439 353.432Z" fill="#52A844"/>
<path d="M290 472.5L317.5 425L368.5 394.959L439 353.432L378.5 433.5L426.5 404.34L416.5 422L420 428.5L400.5 457L290 523.5V498V472.5Z" fill="#52A844"/>
<path d="M268 498L189.5 395L119.5 354L178 432L238.5 505.5L268 524V498Z" fill="#52A844"/>
<path d="M290 498L368.5 395L438.5 354L380 432L319.5 505.5L290 524V498Z" fill="#52A844"/>
<path d="M238.5 505.5L178.5 432.5L170.5 428L138 428.5L157.5 457L238.5 505.5Z" fill="#52A844"/>
<path d="M319 506L380.001 432L387.001 428H420.001L400 458L319 506Z" fill="#52A844"/>
<path fill-rule="evenodd" clip-rule="evenodd" d="M187 322L87.5 265L75.5 250V207.5L98 228.5L187 322Z" fill="#52A844"/>
<path d="M98 228.5L97.5 194L75.5 207.5L98 228.5Z" fill="#52A844"/>
<path d="M187 322L110 201.5L97.5 194L98 228.5L187 322Z" fill="#52A844"/>
<path fill-rule="evenodd" clip-rule="evenodd" d="M370 322L470 265L482 250V207.5L460 228.5L370 322Z" fill="#52A844"/>
<path d="M460 228.5L460.5 194L482 207.5L460 228.5Z" fill="#52A844"/>
<path d="M370 322L447 202L460.5 194L460 228.5L370 322Z" fill="#52A844"/>
<path d="M217 266V339.5L126.5 211.5L217 266Z" fill="#52A844"/>
<path d="M187 322L217 339.5L126.5 211.5L110 201.5L187 322Z" fill="#52A844"/>
<path d="M370 322L340 340L430 212L447 202L370 322Z" fill="#52A844"/>
<path d="M340 266V340L430 212L340 266Z" fill="#52A844"/>
<path d="M325 95L320 92L285 144.609L279 147.109V228.609L325 155.109V95Z" fill="#52A844"/>
<path d="M237 92.5L279 68V153.609L237 92.5Z" fill="#52A844"/>
<path d="M279 154.609V68L320 92L279 154.609Z" fill="#52A844"/>
<path d="M233.5 154.609V95.159L238 92.5001L272.5 144.294V216.609L233.5 154.609Z" fill="#52A844" stroke="#52A844"/>
<path d="M279 227.109L233 154.609V233.609L279 300.609V227.109Z" fill="#52A844"/>
<path d="M279 227.109L325 154.609V233.609L279 300.609V227.109Z" fill="#52A844"/>
<path d="M217 339.5V299.5L273 378V402.5L247 387L217 339.5Z" fill="#52A844"/>
<path d="M340 340V300L284 379.5V403L310 387.5L340 340Z" fill="#52A844"/>
<path d="M217 339.5L187 322L214 367.714L247 386L217 339.5Z" fill="#52A844"/>
<path d="M340 340L370 322L343 368L310.5 386.5L340 340Z" fill="#52A844"/>
<path d="M217 266V299.5L273 378V351.5L222 269L217 266Z" fill="#52A844"/>
<path d="M340 266V300L284 380V353.5L335 269L340 266Z" fill="#52A844"/>
<path d="M87.5 265L187 322L214 367L130 318.5L87.5 265Z" fill="#52A844"/>
<path d="M473.5 263L370 322L343 368L427 319L473.5 263Z" fill="#52A844"/>
<path d="M249.5 243L115 163L98.5 172.5L236.5 254.5L273 315V283L249.5 243Z" fill="#122321" stroke="#102021"/>
<path d="M308.5 243L442.5 163L459 173L321.5 254.5L285 315V283L308.5 243Z" fill="#122321" stroke="#102021"/>
<path d="M305.5 410L279 458.5L252.5 410L75.5 307.5V287L273 401V140L279 107L285 140V401L482 287V307.5L305.5 410Z" fill="#122321"/>
<path d="M138 428L75.5 390.5V341L102 386.5L169.5 428H138Z" fill="#122321" stroke="#102021"/>
<path d="M419.5 428L482 390.5V341L455.5 386.5L388 428H419.5Z" fill="#122321" stroke="#102021"/>
<path d="M267.5 543.5L75.5 429.5V408.5L267.5 523.5V543.5Z" fill="#122321" stroke="#102021"/>
<path d="M290.5 543.5L482 430V409L290.5 523.5V543.5Z" fill="#122321" stroke="#102021"/>
<path d="M75.5 287V250L130 318.5L75.5 287Z" fill="#52A844"/>
<path d="M482 287V250L427.5 318.5L482 287Z" fill="#52A844"/>
<path d="M426 153.349L340 204.848V103L355 111.817V175.848L369.5 167.848V139.848L392.5 153.848L409.5 143.849L426 153.349Z" fill="#122321" stroke="#102021"/>
<path d="M131 153.155L217 204.655V103L202 111.751V175.655L187.5 167.655V139.655L164.5 153.655L147.5 143.655L131 153.155Z" fill="#122321" stroke="#102021"/>
</svg>
