<svg width="1100" height="83" viewBox="0 0 1100 83" fill="none" xmlns="http://www.w3.org/2000/svg">
<mask id="mask0_90_183" style="mask-type:alpha" maskUnits="userSpaceOnUse" x="-51" y="0" width="1143" height="122">
<mask id="path-1-outside-1_90_183" maskUnits="userSpaceOnUse" x="-52" y="-1" width="1145" height="124" fill="black">
<rect fill="white" x="-52" y="-1" width="1145" height="124"/>
<path d="M33.1537 39.4C31.0004 35.4333 27.8837 32.43 23.8037 30.39C19.8371 28.2367 15.1337 27.16 9.69374 27.16C0.287073 27.16 -7.24959 30.2767 -12.9163 36.51C-18.5829 42.63 -21.4163 50.8467 -21.4163 61.16C-21.4163 72.1533 -18.4696 80.7667 -12.5763 87C-6.56959 93.12 1.64707 96.18 12.0737 96.18C19.2137 96.18 25.2204 94.3667 30.0937 90.74C35.0804 87.1133 38.7071 81.9 40.9737 75.1H4.08374V53.68H67.3237V80.71C65.1704 87.9633 61.4871 94.7067 56.2737 100.94C51.1737 107.173 44.6571 112.217 36.7237 116.07C28.7904 119.923 19.8371 121.85 9.86374 121.85C-1.92293 121.85 -12.4629 119.3 -21.7563 114.2C-30.9363 108.987 -38.1329 101.79 -43.3463 92.61C-48.4463 83.43 -50.9963 72.9467 -50.9963 61.16C-50.9963 49.3733 -48.4463 38.89 -43.3463 29.71C-38.1329 20.4167 -30.9363 13.22 -21.7563 8.11999C-12.5763 2.90666 -2.09293 0.299994 9.69374 0.299994C23.9737 0.299994 35.9871 3.75666 45.7337 10.67C55.5937 17.5833 62.1104 27.16 65.2837 39.4H33.1537ZM149.386 121L124.566 75.95H117.596V121H88.5259V1.66H137.316C146.723 1.66 154.713 3.30333 161.286 6.58999C167.973 9.87666 172.959 14.41 176.246 20.19C179.533 25.8567 181.176 32.2033 181.176 39.23C181.176 47.1633 178.909 54.2467 174.376 60.48C169.956 66.7133 163.383 71.1333 154.656 73.74L182.196 121H149.386ZM117.596 55.38H135.616C140.943 55.38 144.909 54.0767 147.516 51.47C150.236 48.8633 151.596 45.18 151.596 40.42C151.596 35.8867 150.236 32.3167 147.516 29.71C144.909 27.1033 140.943 25.8 135.616 25.8H117.596V55.38ZM233.594 24.95V49.09H272.524V71.53H233.594V97.71H277.624V121H204.524V1.66H277.624V24.95H233.594ZM330.667 24.95V49.09H369.597V71.53H330.667V97.71H374.697V121H301.597V1.66H374.697V24.95H330.667ZM505.43 121H476.36L427.74 47.39V121H398.67V1.66H427.74L476.36 75.61V1.66H505.43V121ZM617.452 1.66V24.95H585.832V121H556.762V24.95H525.142V1.66H617.452ZM698.001 121L673.181 75.95H666.211V121H637.141V1.66H685.931C695.338 1.66 703.328 3.30333 709.901 6.58999C716.588 9.87666 721.574 14.41 724.861 20.19C728.148 25.8567 729.791 32.2033 729.791 39.23C729.791 47.1633 727.524 54.2467 722.991 60.48C718.571 66.7133 711.998 71.1333 703.271 73.74L730.811 121H698.001ZM666.211 55.38H684.231C689.558 55.38 693.524 54.0767 696.131 51.47C698.851 48.8633 700.211 45.18 700.211 40.42C700.211 35.8867 698.851 32.3167 696.131 29.71C693.524 27.1033 689.558 25.8 684.231 25.8H666.211V55.38ZM827.43 99.92H782.89L775.75 121H745.32L788.5 1.66H822.16L865.34 121H834.57L827.43 99.92ZM819.95 77.48L805.16 33.79L790.54 77.48H819.95ZM878.651 61.16C878.651 49.3733 881.201 38.89 886.301 29.71C891.401 20.4167 898.485 13.22 907.551 8.11999C916.731 2.90666 927.101 0.299994 938.661 0.299994C952.828 0.299994 964.955 4.03999 975.041 11.52C985.128 19 991.871 29.2 995.271 42.12H963.311C960.931 37.1333 957.531 33.3367 953.111 30.73C948.805 28.1233 943.875 26.82 938.321 26.82C929.368 26.82 922.115 29.9367 916.561 36.17C911.008 42.4033 908.231 50.7333 908.231 61.16C908.231 71.5867 911.008 79.9167 916.561 86.15C922.115 92.3833 929.368 95.5 938.321 95.5C943.875 95.5 948.805 94.1967 953.111 91.59C957.531 88.9833 960.931 85.1867 963.311 80.2H995.271C991.871 93.12 985.128 103.32 975.041 110.8C964.955 118.167 952.828 121.85 938.661 121.85C927.101 121.85 916.731 119.3 907.551 114.2C898.485 108.987 891.401 101.79 886.301 92.61C881.201 83.43 878.651 72.9467 878.651 61.16ZM1047.24 24.95V49.09H1086.17V71.53H1047.24V97.71H1091.27V121H1018.17V1.66H1091.27V24.95H1047.24Z"/>
</mask>
<path d="M33.1537 39.4C31.0004 35.4333 27.8837 32.43 23.8037 30.39C19.8371 28.2367 15.1337 27.16 9.69374 27.16C0.287073 27.16 -7.24959 30.2767 -12.9163 36.51C-18.5829 42.63 -21.4163 50.8467 -21.4163 61.16C-21.4163 72.1533 -18.4696 80.7667 -12.5763 87C-6.56959 93.12 1.64707 96.18 12.0737 96.18C19.2137 96.18 25.2204 94.3667 30.0937 90.74C35.0804 87.1133 38.7071 81.9 40.9737 75.1H4.08374V53.68H67.3237V80.71C65.1704 87.9633 61.4871 94.7067 56.2737 100.94C51.1737 107.173 44.6571 112.217 36.7237 116.07C28.7904 119.923 19.8371 121.85 9.86374 121.85C-1.92293 121.85 -12.4629 119.3 -21.7563 114.2C-30.9363 108.987 -38.1329 101.79 -43.3463 92.61C-48.4463 83.43 -50.9963 72.9467 -50.9963 61.16C-50.9963 49.3733 -48.4463 38.89 -43.3463 29.71C-38.1329 20.4167 -30.9363 13.22 -21.7563 8.11999C-12.5763 2.90666 -2.09293 0.299994 9.69374 0.299994C23.9737 0.299994 35.9871 3.75666 45.7337 10.67C55.5937 17.5833 62.1104 27.16 65.2837 39.4H33.1537ZM149.386 121L124.566 75.95H117.596V121H88.5259V1.66H137.316C146.723 1.66 154.713 3.30333 161.286 6.58999C167.973 9.87666 172.959 14.41 176.246 20.19C179.533 25.8567 181.176 32.2033 181.176 39.23C181.176 47.1633 178.909 54.2467 174.376 60.48C169.956 66.7133 163.383 71.1333 154.656 73.74L182.196 121H149.386ZM117.596 55.38H135.616C140.943 55.38 144.909 54.0767 147.516 51.47C150.236 48.8633 151.596 45.18 151.596 40.42C151.596 35.8867 150.236 32.3167 147.516 29.71C144.909 27.1033 140.943 25.8 135.616 25.8H117.596V55.38ZM233.594 24.95V49.09H272.524V71.53H233.594V97.71H277.624V121H204.524V1.66H277.624V24.95H233.594ZM330.667 24.95V49.09H369.597V71.53H330.667V97.71H374.697V121H301.597V1.66H374.697V24.95H330.667ZM505.43 121H476.36L427.74 47.39V121H398.67V1.66H427.74L476.36 75.61V1.66H505.43V121ZM617.452 1.66V24.95H585.832V121H556.762V24.95H525.142V1.66H617.452ZM698.001 121L673.181 75.95H666.211V121H637.141V1.66H685.931C695.338 1.66 703.328 3.30333 709.901 6.58999C716.588 9.87666 721.574 14.41 724.861 20.19C728.148 25.8567 729.791 32.2033 729.791 39.23C729.791 47.1633 727.524 54.2467 722.991 60.48C718.571 66.7133 711.998 71.1333 703.271 73.74L730.811 121H698.001ZM666.211 55.38H684.231C689.558 55.38 693.524 54.0767 696.131 51.47C698.851 48.8633 700.211 45.18 700.211 40.42C700.211 35.8867 698.851 32.3167 696.131 29.71C693.524 27.1033 689.558 25.8 684.231 25.8H666.211V55.38ZM827.43 99.92H782.89L775.75 121H745.32L788.5 1.66H822.16L865.34 121H834.57L827.43 99.92ZM819.95 77.48L805.16 33.79L790.54 77.48H819.95ZM878.651 61.16C878.651 49.3733 881.201 38.89 886.301 29.71C891.401 20.4167 898.485 13.22 907.551 8.11999C916.731 2.90666 927.101 0.299994 938.661 0.299994C952.828 0.299994 964.955 4.03999 975.041 11.52C985.128 19 991.871 29.2 995.271 42.12H963.311C960.931 37.1333 957.531 33.3367 953.111 30.73C948.805 28.1233 943.875 26.82 938.321 26.82C929.368 26.82 922.115 29.9367 916.561 36.17C911.008 42.4033 908.231 50.7333 908.231 61.16C908.231 71.5867 911.008 79.9167 916.561 86.15C922.115 92.3833 929.368 95.5 938.321 95.5C943.875 95.5 948.805 94.1967 953.111 91.59C957.531 88.9833 960.931 85.1867 963.311 80.2H995.271C991.871 93.12 985.128 103.32 975.041 110.8C964.955 118.167 952.828 121.85 938.661 121.85C927.101 121.85 916.731 119.3 907.551 114.2C898.485 108.987 891.401 101.79 886.301 92.61C881.201 83.43 878.651 72.9467 878.651 61.16ZM1047.24 24.95V49.09H1086.17V71.53H1047.24V97.71H1091.27V121H1018.17V1.66H1091.27V24.95H1047.24Z" fill="#82C9E6"/>
<path d="M33.1537 39.4L32.2749 39.8771L32.5587 40.4H33.1537V39.4ZM23.8037 30.39L23.3266 31.2688L23.3415 31.2769L23.3565 31.2844L23.8037 30.39ZM-12.9163 36.51L-12.1825 37.1894L-12.1763 37.1827L-12.9163 36.51ZM-12.5763 87L-13.3029 87.687L-13.2965 87.6938L-13.2899 87.7005L-12.5763 87ZM30.0937 90.74L29.5055 89.9312L29.4967 89.9378L30.0937 90.74ZM40.9737 75.1L41.9224 75.4162L42.3612 74.1H40.9737V75.1ZM4.08374 75.1H3.08374V76.1H4.08374V75.1ZM4.08374 53.68V52.68H3.08374V53.68H4.08374ZM67.3237 53.68H68.3237V52.68H67.3237V53.68ZM67.3237 80.71L68.2824 80.9946L68.3237 80.8553V80.71H67.3237ZM56.2737 100.94L55.5066 100.298L55.4998 100.307L56.2737 100.94ZM36.7237 116.07L36.2868 115.17L36.2868 115.17L36.7237 116.07ZM-21.7563 114.2L-22.2501 115.07L-22.2437 115.073L-22.2374 115.077L-21.7563 114.2ZM-43.3463 92.61L-44.2205 93.0957L-44.2158 93.1038L-43.3463 92.61ZM-43.3463 29.71L-44.2184 29.2207L-44.2204 29.2244L-43.3463 29.71ZM-21.7563 8.11999L-21.2706 8.99419L-21.2624 8.98956L-21.7563 8.11999ZM45.7337 10.67L45.1552 11.4857L45.1597 11.4888L45.7337 10.67ZM65.2837 39.4V40.4H66.5761L66.2517 39.149L65.2837 39.4ZM34.0326 38.9229C31.7804 34.7742 28.5121 31.6261 24.251 29.4956L23.3565 31.2844C27.2554 33.2338 30.2204 36.0925 32.2749 39.8771L34.0326 38.9229ZM24.2808 29.5111C20.1405 27.2635 15.2664 26.16 9.69374 26.16V28.16C15.0011 28.16 19.5337 29.2098 23.3266 31.2688L24.2808 29.5111ZM9.69374 26.16C0.0418368 26.16 -7.77677 29.3699 -13.6562 35.8373L-12.1763 37.1827C-6.72242 31.1834 0.53231 28.16 9.69374 28.16V26.16ZM-13.65 35.8306C-19.526 42.1766 -22.4163 50.6572 -22.4163 61.16H-20.4163C-20.4163 51.0362 -17.6399 43.0833 -12.1825 37.1894L-13.65 35.8306ZM-22.4163 61.16C-22.4163 72.3341 -19.4171 81.22 -13.3029 87.687L-11.8496 86.313C-17.522 80.3133 -20.4163 71.9725 -20.4163 61.16H-22.4163ZM-13.2899 87.7005C-7.05586 94.0522 1.44058 97.18 12.0737 97.18V95.18C1.85357 95.18 -6.08333 92.1878 -11.8626 86.2995L-13.2899 87.7005ZM12.0737 97.18C19.3898 97.18 25.616 95.3188 30.6908 91.5422L29.4967 89.9378C24.8248 93.4145 19.0377 95.18 12.0737 95.18V97.18ZM30.6819 91.5487C35.8634 87.7804 39.6009 82.3808 41.9224 75.4162L40.0251 74.7838C37.8132 81.4192 34.2974 86.4463 29.5056 89.9313L30.6819 91.5487ZM40.9737 74.1H4.08374V76.1H40.9737V74.1ZM5.08374 75.1V53.68H3.08374V75.1H5.08374ZM4.08374 54.68H67.3237V52.68H4.08374V54.68ZM66.3237 53.68V80.71H68.3237V53.68H66.3237ZM66.3651 80.4254C64.2534 87.5385 60.639 94.1619 55.5067 100.298L57.0408 101.582C62.3351 95.2514 66.0874 88.3882 68.2824 80.9946L66.3651 80.4254ZM55.4998 100.307C50.5 106.418 44.1024 111.374 36.2868 115.17L37.1606 116.97C45.2118 113.059 51.8475 107.929 57.0477 101.573L55.4998 100.307ZM36.2868 115.17C28.5065 118.95 19.7056 120.85 9.86374 120.85V122.85C19.9685 122.85 29.0743 120.897 37.1606 116.97L36.2868 115.17ZM9.86374 120.85C-1.77393 120.85 -12.1452 118.334 -21.2752 113.323L-22.2374 115.077C-12.7806 120.266 -2.07193 122.85 9.86374 122.85V120.85ZM-21.2624 113.33C-30.2856 108.206 -37.3524 101.139 -42.4767 92.1162L-44.2158 93.1038C-38.9134 102.441 -31.5869 109.767 -22.2501 115.07L-21.2624 113.33ZM-42.4721 92.1244C-47.4799 83.1104 -49.9963 72.7979 -49.9963 61.16H-51.9963C-51.9963 73.0954 -49.4127 83.7496 -44.2204 93.0956L-42.4721 92.1244ZM-49.9963 61.16C-49.9963 49.5221 -47.4799 39.2096 -42.4721 30.1956L-44.2204 29.2244C-49.4127 38.5704 -51.9963 49.2246 -51.9963 61.16H-49.9963ZM-42.4741 30.1993C-37.3501 21.065 -30.2861 14.0028 -21.2706 8.99415L-22.2419 7.24584C-31.5864 12.4372 -38.9158 19.7683 -44.2184 29.2207L-42.4741 30.1993ZM-21.2624 8.98956C-12.2499 3.87134 -1.9404 1.29999 9.69374 1.29999V-0.700006C-2.24546 -0.700006 -12.9026 1.94198 -22.2501 7.25043L-21.2624 8.98956ZM9.69374 1.29999C23.8078 1.29999 35.6085 4.71413 45.1552 11.4856L46.3123 9.85434C36.3657 2.79919 24.1397 -0.700006 9.69374 -0.700006V1.29999ZM45.1597 11.4888C54.8147 18.2584 61.1988 27.6285 64.3157 39.651L66.2517 39.149C63.022 26.6915 56.3728 16.9082 46.3078 9.8512L45.1597 11.4888ZM65.2837 38.4H33.1537V40.4H65.2837V38.4ZM149.386 121L148.51 121.483L148.795 122H149.386V121ZM124.566 75.95L125.442 75.4674L125.157 74.95H124.566V75.95ZM117.596 75.95V74.95H116.596V75.95H117.596ZM117.596 121V122H118.596V121H117.596ZM88.5259 121H87.5259V122H88.5259V121ZM88.5259 1.66V0.659996H87.5259V1.66H88.5259ZM161.286 6.58999L160.839 7.48444L160.845 7.48744L161.286 6.58999ZM176.246 20.19L175.377 20.6843L175.381 20.6917L176.246 20.19ZM174.376 60.48L173.567 59.8918L173.56 59.9016L174.376 60.48ZM154.656 73.74L154.37 72.7818L153.152 73.1455L153.792 74.2435L154.656 73.74ZM182.196 121V122H183.936L183.06 120.497L182.196 121ZM117.596 55.38H116.596V56.38H117.596V55.38ZM147.516 51.47L146.824 50.748L146.816 50.7554L146.809 50.7629L147.516 51.47ZM147.516 29.71L146.809 30.4171L146.816 30.4246L146.824 30.432L147.516 29.71ZM117.596 25.8V24.8H116.596V25.8H117.596ZM150.262 120.517L125.442 75.4674L123.69 76.4326L148.51 121.483L150.262 120.517ZM124.566 74.95H117.596V76.95H124.566V74.95ZM116.596 75.95V121H118.596V75.95H116.596ZM117.596 120H88.5259V122H117.596V120ZM89.5259 121V1.66H87.5259V121H89.5259ZM88.5259 2.66H137.316V0.659996H88.5259V2.66ZM137.316 2.66C146.609 2.66 154.438 4.28385 160.839 7.48442L161.733 5.69557C154.988 2.32281 146.836 0.659996 137.316 0.659996V2.66ZM160.845 7.48744C167.374 10.6967 172.201 15.0992 175.377 20.6843L177.115 19.6957C173.718 13.7208 168.571 9.05657 161.727 5.69254L160.845 7.48744ZM175.381 20.6917C178.573 26.1949 180.176 32.3663 180.176 39.23H182.176C182.176 32.0404 180.492 25.5184 177.111 19.6883L175.381 20.6917ZM180.176 39.23C180.176 46.9586 177.972 53.8347 173.567 59.8918L175.185 61.0682C179.846 54.6586 182.176 47.368 182.176 39.23H180.176ZM173.56 59.9016C169.293 65.9196 162.925 70.2264 154.37 72.7818L154.942 74.6982C163.84 72.0403 170.619 67.5071 175.192 61.0584L173.56 59.9016ZM153.792 74.2435L181.332 121.503L183.06 120.497L155.52 73.2365L153.792 74.2435ZM182.196 120H149.386V122H182.196V120ZM117.596 56.38H135.616V54.38H117.596V56.38ZM135.616 56.38C141.089 56.38 145.359 55.041 148.223 52.1771L146.809 50.7629C144.459 53.1123 140.796 54.38 135.616 54.38V56.38ZM148.208 52.192C151.174 49.3498 152.596 45.3765 152.596 40.42H150.596C150.596 44.9835 149.298 48.3768 146.824 50.748L148.208 52.192ZM152.596 40.42C152.596 35.6737 151.164 31.8209 148.208 28.988L146.824 30.432C149.308 32.8124 150.596 36.0996 150.596 40.42H152.596ZM148.223 29.0029C145.359 26.139 141.089 24.8 135.616 24.8V26.8C140.796 26.8 144.459 28.0677 146.809 30.4171L148.223 29.0029ZM135.616 24.8H117.596V26.8H135.616V24.8ZM116.596 25.8V55.38H118.596V25.8H116.596ZM233.594 24.95V23.95H232.594V24.95H233.594ZM233.594 49.09H232.594V50.09H233.594V49.09ZM272.524 49.09H273.524V48.09H272.524V49.09ZM272.524 71.53V72.53H273.524V71.53H272.524ZM233.594 71.53V70.53H232.594V71.53H233.594ZM233.594 97.71H232.594V98.71H233.594V97.71ZM277.624 97.71H278.624V96.71H277.624V97.71ZM277.624 121V122H278.624V121H277.624ZM204.524 121H203.524V122H204.524V121ZM204.524 1.66V0.659996H203.524V1.66H204.524ZM277.624 1.66H278.624V0.659996H277.624V1.66ZM277.624 24.95V25.95H278.624V24.95H277.624ZM232.594 24.95V49.09H234.594V24.95H232.594ZM233.594 50.09H272.524V48.09H233.594V50.09ZM271.524 49.09V71.53H273.524V49.09H271.524ZM272.524 70.53H233.594V72.53H272.524V70.53ZM232.594 71.53V97.71H234.594V71.53H232.594ZM233.594 98.71H277.624V96.71H233.594V98.71ZM276.624 97.71V121H278.624V97.71H276.624ZM277.624 120H204.524V122H277.624V120ZM205.524 121V1.66H203.524V121H205.524ZM204.524 2.66H277.624V0.659996H204.524V2.66ZM276.624 1.66V24.95H278.624V1.66H276.624ZM277.624 23.95H233.594V25.95H277.624V23.95ZM330.667 24.95V23.95H329.667V24.95H330.667ZM330.667 49.09H329.667V50.09H330.667V49.09ZM369.597 49.09H370.597V48.09H369.597V49.09ZM369.597 71.53V72.53H370.597V71.53H369.597ZM330.667 71.53V70.53H329.667V71.53H330.667ZM330.667 97.71H329.667V98.71H330.667V97.71ZM374.697 97.71H375.697V96.71H374.697V97.71ZM374.697 121V122H375.697V121H374.697ZM301.597 121H300.597V122H301.597V121ZM301.597 1.66V0.659996H300.597V1.66H301.597ZM374.697 1.66H375.697V0.659996H374.697V1.66ZM374.697 24.95V25.95H375.697V24.95H374.697ZM329.667 24.95V49.09H331.667V24.95H329.667ZM330.667 50.09H369.597V48.09H330.667V50.09ZM368.597 49.09V71.53H370.597V49.09H368.597ZM369.597 70.53H330.667V72.53H369.597V70.53ZM329.667 71.53V97.71H331.667V71.53H329.667ZM330.667 98.71H374.697V96.71H330.667V98.71ZM373.697 97.71V121H375.697V97.71H373.697ZM374.697 120H301.597V122H374.697V120ZM302.597 121V1.66H300.597V121H302.597ZM301.597 2.66H374.697V0.659996H301.597V2.66ZM373.697 1.66V24.95H375.697V1.66H373.697ZM374.697 23.95H330.667V25.95H374.697V23.95ZM505.43 121V122H506.43V121H505.43ZM476.36 121L475.525 121.551L475.822 122H476.36V121ZM427.74 47.39L428.574 46.8389L426.74 44.0616V47.39H427.74ZM427.74 121V122H428.74V121H427.74ZM398.67 121H397.67V122H398.67V121ZM398.67 1.66V0.659996H397.67V1.66H398.67ZM427.74 1.66L428.575 1.11063L428.279 0.659996H427.74V1.66ZM476.36 75.61L475.524 76.1594L477.36 78.9512V75.61H476.36ZM476.36 1.66V0.659996H475.36V1.66H476.36ZM505.43 1.66H506.43V0.659996H505.43V1.66ZM505.43 120H476.36V122H505.43V120ZM477.194 120.449L428.574 46.8389L426.905 47.9411L475.525 121.551L477.194 120.449ZM426.74 47.39V121H428.74V47.39H426.74ZM427.74 120H398.67V122H427.74V120ZM399.67 121V1.66H397.67V121H399.67ZM398.67 2.66H427.74V0.659996H398.67V2.66ZM426.904 2.20937L475.524 76.1594L477.195 75.0606L428.575 1.11063L426.904 2.20937ZM477.36 75.61V1.66H475.36V75.61H477.36ZM476.36 2.66H505.43V0.659996H476.36V2.66ZM504.43 1.66V121H506.43V1.66H504.43ZM617.452 1.66H618.452V0.659996H617.452V1.66ZM617.452 24.95V25.95H618.452V24.95H617.452ZM585.832 24.95V23.95H584.832V24.95H585.832ZM585.832 121V122H586.832V121H585.832ZM556.762 121H555.762V122H556.762V121ZM556.762 24.95H557.762V23.95H556.762V24.95ZM525.142 24.95H524.142V25.95H525.142V24.95ZM525.142 1.66V0.659996H524.142V1.66H525.142ZM616.452 1.66V24.95H618.452V1.66H616.452ZM617.452 23.95H585.832V25.95H617.452V23.95ZM584.832 24.95V121H586.832V24.95H584.832ZM585.832 120H556.762V122H585.832V120ZM557.762 121V24.95H555.762V121H557.762ZM556.762 23.95H525.142V25.95H556.762V23.95ZM526.142 24.95V1.66H524.142V24.95H526.142ZM525.142 2.66H617.452V0.659996H525.142V2.66ZM698.001 121L697.125 121.483L697.41 122H698.001V121ZM673.181 75.95L674.057 75.4674L673.772 74.95H673.181V75.95ZM666.211 75.95V74.95H665.211V75.95H666.211ZM666.211 121V122H667.211V121H666.211ZM637.141 121H636.141V122H637.141V121ZM637.141 1.66V0.659996H636.141V1.66H637.141ZM709.901 6.58999L709.454 7.48444L709.46 7.48744L709.901 6.58999ZM724.861 20.19L723.992 20.6843L723.996 20.6917L724.861 20.19ZM722.991 60.48L722.182 59.8918L722.175 59.9016L722.991 60.48ZM703.271 73.74L702.985 72.7818L701.767 73.1455L702.407 74.2435L703.271 73.74ZM730.811 121V122H732.551L731.675 120.497L730.811 121ZM666.211 55.38H665.211V56.38H666.211V55.38ZM696.131 51.47L695.439 50.748L695.432 50.7554L695.424 50.7629L696.131 51.47ZM696.131 29.71L695.424 30.4171L695.432 30.4246L695.439 30.432L696.131 29.71ZM666.211 25.8V24.8H665.211V25.8H666.211ZM698.877 120.517L674.057 75.4674L672.305 76.4326L697.125 121.483L698.877 120.517ZM673.181 74.95H666.211V76.95H673.181V74.95ZM665.211 75.95V121H667.211V75.95H665.211ZM666.211 120H637.141V122H666.211V120ZM638.141 121V1.66H636.141V121H638.141ZM637.141 2.66H685.931V0.659996H637.141V2.66ZM685.931 2.66C695.225 2.66 703.053 4.28385 709.454 7.48442L710.348 5.69557C703.603 2.32281 695.451 0.659996 685.931 0.659996V2.66ZM709.46 7.48744C715.989 10.6967 720.816 15.0992 723.992 20.6843L725.73 19.6957C722.333 13.7208 717.186 9.05657 710.342 5.69254L709.46 7.48744ZM723.996 20.6917C727.188 26.1949 728.791 32.3663 728.791 39.23H730.791C730.791 32.0404 729.108 25.5184 725.726 19.6883L723.996 20.6917ZM728.791 39.23C728.791 46.9586 726.588 53.8347 722.182 59.8918L723.8 61.0682C728.461 54.6586 730.791 47.368 730.791 39.23H728.791ZM722.175 59.9016C717.908 65.9196 711.54 70.2264 702.985 72.7818L703.557 74.6982C712.455 72.0403 719.234 67.5071 723.807 61.0584L722.175 59.9016ZM702.407 74.2435L729.947 121.503L731.675 120.497L704.135 73.2365L702.407 74.2435ZM730.811 120H698.001V122H730.811V120ZM666.211 56.38H684.231V54.38H666.211V56.38ZM684.231 56.38C689.705 56.38 693.974 55.041 696.838 52.1771L695.424 50.7629C693.075 53.1123 689.411 54.38 684.231 54.38V56.38ZM696.823 52.192C699.789 49.3498 701.211 45.3765 701.211 40.42H699.211C699.211 44.9835 697.914 48.3768 695.439 50.748L696.823 52.192ZM701.211 40.42C701.211 35.6737 699.779 31.8209 696.823 28.988L695.439 30.432C697.923 32.8124 699.211 36.0996 699.211 40.42H701.211ZM696.838 29.0029C693.974 26.139 689.705 24.8 684.231 24.8V26.8C689.411 26.8 693.075 28.0677 695.424 30.4171L696.838 29.0029ZM684.231 24.8H666.211V26.8H684.231V24.8ZM665.211 25.8V55.38H667.211V25.8H665.211ZM827.43 99.92L828.377 99.5992L828.147 98.92H827.43V99.92ZM782.89 99.92V98.92H782.173L781.942 99.5992L782.89 99.92ZM775.75 121V122H776.467L776.697 121.321L775.75 121ZM745.32 121L744.379 120.66L743.894 122H745.32V121ZM788.5 1.66V0.659996H787.798L787.559 1.31976L788.5 1.66ZM822.16 1.66L823.1 1.31976L822.861 0.659996H822.16V1.66ZM865.34 121V122H866.765L866.28 120.66L865.34 121ZM834.57 121L833.622 121.321L833.853 122H834.57V121ZM819.95 77.48V78.48H821.344L820.897 77.1594L819.95 77.48ZM805.16 33.79L806.107 33.4694L805.154 30.6551L804.211 33.4727L805.16 33.79ZM790.54 77.48L789.591 77.1627L789.15 78.48H790.54V77.48ZM827.43 98.92H782.89V100.92H827.43V98.92ZM781.942 99.5992L774.802 120.679L776.697 121.321L783.837 100.241L781.942 99.5992ZM775.75 120H745.32V122H775.75V120ZM746.26 121.34L789.44 2.00023L787.559 1.31976L744.379 120.66L746.26 121.34ZM788.5 2.66H822.16V0.659996H788.5V2.66ZM821.219 2.00023L864.399 121.34L866.28 120.66L823.1 1.31976L821.219 2.00023ZM865.34 120H834.57V122H865.34V120ZM835.517 120.679L828.377 99.5992L826.482 100.241L833.622 121.321L835.517 120.679ZM820.897 77.1594L806.107 33.4694L804.212 34.1106L819.002 77.8006L820.897 77.1594ZM804.211 33.4727L789.591 77.1627L791.488 77.7973L806.108 34.1073L804.211 33.4727ZM790.54 78.48H819.95V76.48H790.54V78.48ZM886.301 29.71L887.176 30.1956L887.178 30.1911L886.301 29.71ZM907.551 8.11999L908.042 8.99158L908.045 8.98956L907.551 8.11999ZM975.041 11.52L975.637 10.7168L975.637 10.7168L975.041 11.52ZM995.271 42.12V43.12H996.569L996.238 41.8655L995.271 42.12ZM963.311 42.12L962.409 42.5507L962.681 43.12H963.311V42.12ZM953.111 30.73L952.594 31.5856L952.603 31.5914L953.111 30.73ZM916.561 36.17L917.308 36.8352L917.308 36.8352L916.561 36.17ZM916.561 86.15L915.815 86.8152L916.561 86.15ZM953.111 91.59L952.603 90.7286L952.594 90.7345L953.111 91.59ZM963.311 80.2V79.2H962.681L962.409 79.7693L963.311 80.2ZM995.271 80.2L996.238 80.4545L996.569 79.2H995.271V80.2ZM975.041 110.8L975.631 111.608L975.637 111.603L975.041 110.8ZM907.551 114.2L907.053 115.067L907.059 115.071L907.066 115.074L907.551 114.2ZM886.301 92.61L887.176 92.1244L887.176 92.1244L886.301 92.61ZM879.651 61.16C879.651 49.5221 882.168 39.2096 887.176 30.1956L885.427 29.2244C880.235 38.5704 877.651 49.2246 877.651 61.16H879.651ZM887.178 30.1911C892.19 21.0582 899.141 13.9982 908.042 8.99157L907.061 7.24842C897.828 12.4418 890.613 19.7752 885.425 29.2289L887.178 30.1911ZM908.045 8.98956C917.061 3.86969 927.258 1.29999 938.661 1.29999V-0.700006C926.945 -0.700006 916.402 1.94363 907.058 7.25043L908.045 8.98956ZM938.661 1.29999C952.642 1.29999 964.553 4.98714 974.446 12.3232L975.637 10.7168C965.356 3.09284 953.014 -0.700006 938.661 -0.700006V1.29999ZM974.446 12.3232C984.338 19.6588 990.958 29.6592 994.304 42.3745L996.238 41.8655C992.785 28.7408 985.918 18.3412 975.637 10.7168L974.446 12.3232ZM995.271 41.12H963.311V43.12H995.271V41.12ZM964.214 41.6893C961.755 36.5375 958.224 32.5842 953.619 29.8686L952.603 31.5914C956.839 34.0891 960.108 37.7292 962.409 42.5507L964.214 41.6893ZM953.629 29.8745C949.151 27.1637 944.038 25.82 938.321 25.82V27.82C943.712 27.82 948.459 29.0829 952.594 31.5855L953.629 29.8745ZM938.321 25.82C929.106 25.82 921.573 29.0417 915.815 35.5048L917.308 36.8352C922.657 30.8317 929.63 27.82 938.321 27.82V25.82ZM915.815 35.5048C910.06 41.9637 907.231 50.5514 907.231 61.16H909.231C909.231 50.9152 911.956 42.843 917.308 36.8352L915.815 35.5048ZM907.231 61.16C907.231 71.7685 910.06 80.3563 915.815 86.8152L917.308 85.4848C911.956 79.477 909.231 71.4048 909.231 61.16H907.231ZM915.815 86.8152C921.573 93.2783 929.106 96.5 938.321 96.5V94.5C929.63 94.5 922.657 91.4883 917.308 85.4848L915.815 86.8152ZM938.321 96.5C944.038 96.5 949.151 95.1563 953.629 92.4455L952.594 90.7345C948.459 93.2371 943.712 94.5 938.321 94.5V96.5ZM953.619 92.4514C958.224 89.7358 961.755 85.7825 964.214 80.6307L962.409 79.7693C960.108 84.5908 956.839 88.2309 952.603 90.7286L953.619 92.4514ZM963.311 81.2H995.271V79.2H963.311V81.2ZM994.304 79.9455C990.958 92.6608 984.338 102.661 974.446 109.997L975.637 111.603C985.918 103.979 992.785 93.5792 996.238 80.4545L994.304 79.9455ZM974.452 109.992C964.559 117.218 952.646 120.85 938.661 120.85V122.85C953.01 122.85 965.351 119.116 975.631 111.608L974.452 109.992ZM938.661 120.85C927.254 120.85 917.054 118.335 908.037 113.326L907.066 115.074C916.409 120.265 926.949 122.85 938.661 122.85V120.85ZM908.05 113.333C899.141 108.211 892.188 101.146 887.176 92.1244L885.427 93.0956C890.615 102.434 897.828 109.763 907.053 115.067L908.05 113.333ZM887.176 92.1244C882.168 83.1104 879.651 72.7979 879.651 61.16H877.651C877.651 73.0954 880.235 83.7496 885.427 93.0956L887.176 92.1244ZM1047.24 24.95V23.95H1046.24V24.95H1047.24ZM1047.24 49.09H1046.24V50.09H1047.24V49.09ZM1086.17 49.09H1087.17V48.09H1086.17V49.09ZM1086.17 71.53V72.53H1087.17V71.53H1086.17ZM1047.24 71.53V70.53H1046.24V71.53H1047.24ZM1047.24 97.71H1046.24V98.71H1047.24V97.71ZM1091.27 97.71H1092.27V96.71H1091.27V97.71ZM1091.27 121V122H1092.27V121H1091.27ZM1018.17 121H1017.17V122H1018.17V121ZM1018.17 1.66V0.659996H1017.17V1.66H1018.17ZM1091.27 1.66H1092.27V0.659996H1091.27V1.66ZM1091.27 24.95V25.95H1092.27V24.95H1091.27ZM1046.24 24.95V49.09H1048.24V24.95H1046.24ZM1047.24 50.09H1086.17V48.09H1047.24V50.09ZM1085.17 49.09V71.53H1087.17V49.09H1085.17ZM1086.17 70.53H1047.24V72.53H1086.17V70.53ZM1046.24 71.53V97.71H1048.24V71.53H1046.24ZM1047.24 98.71H1091.27V96.71H1047.24V98.71ZM1090.27 97.71V121H1092.27V97.71H1090.27ZM1091.27 120H1018.17V122H1091.27V120ZM1019.17 121V1.66H1017.17V121H1019.17ZM1018.17 2.66H1091.27V0.659996H1018.17V2.66ZM1090.27 1.66V24.95H1092.27V1.66H1090.27ZM1091.27 23.95H1047.24V25.95H1091.27V23.95Z" fill="black" mask="url(#path-1-outside-1_90_183)"/>
</mask>
<g mask="url(#mask0_90_183)">
<path d="M-50 -34H1092V83H-50V-34Z" fill="#82C9E6"/>
</g>
</svg>
